<svg width="25" height="25" viewBox="0 0 25 25" fill="none" xmlns="http://www.w3.org/2000/svg">
<path d="M23.62 0H1.38002C1.01406 0.000147892 0.663135 0.14559 0.404363 0.404363C0.14559 0.663135 0.000147892 1.01406 0 1.38002V23.62C0.000147892 23.9859 0.14559 24.3369 0.404363 24.5956C0.663135 24.8544 1.01406 24.9999 1.38002 25H12.5V15.1786H9.51172V11.6071H12.5V8.76116C12.5 5.53237 14.7394 3.77455 17.6239 3.77455C19.0039 3.77455 20.4883 3.87835 20.8331 3.92411V7.29632H18.5352C16.966 7.29632 16.6669 8.0385 16.6669 9.13225V11.6071H20.4057L19.9174 15.1786H16.6669V25H23.62C23.9859 24.9999 24.3369 24.8544 24.5956 24.5956C24.8544 24.3369 24.9999 23.9859 25 23.62V1.38002C24.9999 1.01406 24.8544 0.663135 24.5956 0.404363C24.3369 0.14559 23.9859 0.000147892 23.62 0Z" fill="white"/>
</svg>
